<svg viewBox="0 0 64.00 64.00" xmlns="http://www.w3.org/2000/svg" xmlns:xlink="http://www.w3.org/1999/xlink" aria-hidden="true" role="img" class="iconify iconify--emojione-monotone" preserveAspectRatio="xMidYMid meet" fill="#ffffff" stroke="#ffffff" stroke-width="0.00064" transform="matrix(-1, 0, 0, 1, 0, 0)"><g id="SVGRepo_bgCarrier" stroke-width="0" transform="translate(0,0), scale(1)"><rect x="0" y="0" width="64.00" height="64.00" rx="32" fill="#ffffff" strokewidth="0"></rect></g><g id="SVGRepo_tracerCarrier" stroke-linecap="round" stroke-linejoin="round"></g><g id="SVGRepo_iconCarrier"><path d="M32 2C15.432 2 2 15.432 2 32s13.432 30 30 30s30-13.432 30-30S48.568 2 32 2m14.035 44.508h-5.65V26.882c0-.564.008-1.355.02-2.372c.014-1.018.02-1.802.02-2.353l-5.498 24.351h-5.893l-5.459-24.351c0 .551.006 1.335.02 2.353c.014 1.017.02 1.808.02 2.372v19.626h-5.65V17.492h8.824l5.281 22.814l5.242-22.814h8.725v29.016z" fill="#000000"></path></g></svg>